<svg version="1.2" xmlns="http://www.w3.org/2000/svg">
<defs>
<symbol id="icon-ellipse" viewBox="0 0 1190 1064"><path d="m188.6 1003.7l-2.8-2.8 1000.6-1000.6 2.8 2.8-1000.6 1000.6m488.6-512.7c5.9-5.8 15.4-5.8 21.3 0 5.8 5.9 5.8 15.4 0 21.3-5.9 5.8-15.4 5.8-21.3 0-5.8-5.9-5.8-15.4 0-21.3zm-673.6 572.7l-2.8-2.8 1000.6-1000.6 2.8 2.8-1000.6 1000.6m775.6-801.7c5.9-5.8 15.4-5.8 21.3 0 5.8 5.9 5.8 15.4 0 21.3-5.9 5.8-15.4 5.8-21.3 0-5.8-5.9-5.8-15.4 0-21.3z"/></symbol>
<symbol id="icon-shape" viewBox="0 0 21 14"><path class="a" d="m0 6h16l-2.6-6 7.6 7-7.6 7 2.6-6h-16z"/></symbol>
</defs></svg>